<mxfile host="Electron" modified="2023-11-16T23:08:04.029Z" agent="Mozilla/5.0 (Windows NT 10.0; Win64; x64) AppleWebKit/537.36 (KHTML, like Gecko) draw.io/22.0.2 Chrome/114.0.5735.289 Electron/25.8.4 Safari/537.36" etag="6Wqv8zP2PU8hrjZ4t4hX" version="22.0.2" type="device">
  <diagram name="Page-1" id="wXeB1TfPJMsNi5Z5nZOn">
    <mxGraphModel dx="1727" dy="1023" grid="1" gridSize="10" guides="1" tooltips="1" connect="1" arrows="1" fold="1" page="1" pageScale="1" pageWidth="827" pageHeight="1169" math="0" shadow="0">
      <root>
        <mxCell id="0" />
        <mxCell id="1" parent="0" />
        <mxCell id="qkpuVp98EWopYhuN68hy-2" value="&lt;p style=&quot;margin:0px;margin-top:4px;text-align:center;&quot;&gt;&lt;b&gt;CourseRegistrationSystem&lt;/b&gt;&lt;/p&gt;&lt;hr size=&quot;1&quot;/&gt;&lt;p style=&quot;margin:0 0 0 4px;line-height:1.6;&quot;&gt;+ CourseRegistrationSystem(): &lt;/p&gt;&lt;hr size=&quot;1&quot;/&gt;&lt;p style=&quot;margin:0 0 0 4px;line-height:1.6;&quot;&gt;- choice: int&lt;br/&gt;- input: Scanner&lt;br/&gt;- department: Department&lt;/p&gt;&lt;hr size=&quot;1&quot;/&gt;&lt;p style=&quot;margin:0 0 0 4px;line-height:1.6;&quot;&gt;+ mainMenu(Department): void&lt;br/&gt;+ start(): void&lt;br/&gt;+ advisorMenu(Advisor): void&lt;br/&gt;+ studentMenu(Student): void&lt;br/&gt;+ courseSelectionMenu(Student): void&lt;br/&gt;+ getInput(): int&lt;br/&gt;+ exitProgram(): void&lt;br/&gt;+ loginMenu(Department): void&lt;br/&gt;+ printMenu(String): void&lt;/p&gt;" style="verticalAlign=top;align=left;overflow=fill;fontSize=14;fontFamily=Helvetica;html=1;rounded=0;shadow=0;comic=0;labelBackgroundColor=none;strokeWidth=1;" vertex="1" parent="1">
          <mxGeometry x="278" y="310" width="271" height="363" as="geometry" />
        </mxCell>
      </root>
    </mxGraphModel>
  </diagram>
</mxfile>
